# xmcd CD database file generated by Grip 3.0.5
# 
# Track frame offsets:
#       150
#       9096
#       21457
#       33671
# 
# Disc length: 600 seconds
# 
# Revision: 1
# Processed by: cddbd v1.5PL3 Copyright (c) Steve Scherf et al.
# Submitted via: Grip 3.0.5
# 
DISCID=26025604
DTITLE=Patsy Cline - Vintage Gold
DYEAR=1900
DGENRE=Country
TTITLE0=Walking After Midnight
TTITLE1=I Fall To Pieces
TTITLE2=Crazy
TTITLE3=Sweet Dreams Of You
EXTD=
EXTT0=
EXTT1=
EXTT2=
EXTT3=
PLAYORDER=
